<svg width="209" height="72" viewBox="0 0 209 72" fill="none" xmlns="http://www.w3.org/2000/svg">
<path d="M25.5463 0.639998V32H15.3063V23.6H11.8263V32H1.58625V0.639998H25.5463ZM11.9463 15.96H15.1863V8.04H11.9463V15.96ZM37.0147 17.8V14.84H33.6947V0.639998H43.9347V12H47.4147V0.639998H57.6547V14.84H54.2947V17.8H51.0947V32H40.7347V17.8H37.0147ZM75.5409 0.639998V23.6H80.9809V0.639998H90.9809V32H65.5409V0.639998H75.5409Z" fill="white"/>
<path d="M59.8775 30.64V45.6H57.1575V47.08H59.8775V62H35.9175V30.64H59.8775ZM46.2775 53.6H49.5175V50.64H46.2775V53.6ZM46.2775 42H49.5175V39.04H46.2775V42ZM92.2259 30.64V48.56H89.5059V50.04H92.2259V62H81.9859V50.64H78.5059V62H68.2659V30.64H92.2259ZM78.6259 42H81.8659V39.04H78.6259V42ZM124.574 30.64V62H114.334V53.6H110.854V62H100.614V30.64H124.574ZM109.014 46.92H110.374V45.2H114.814V46.92H116.174V41.64H114.334V39.76H110.854V41.64H109.014V46.92ZM107.014 39.04H110.254V36.08H107.014V39.04ZM114.934 39.04H118.134V36.08H114.934V39.04ZM147.523 53.72V50.52H132.963V30.64H157.643V38.92H143.083V42.12H157.643V62H132.963V53.72H147.523ZM175.699 30.64V62H165.819V30.64H175.699ZM194.105 30.64V53.72H207.545V62H184.105V30.64H194.105Z" fill="#A97629"/>
</svg>
